<svg width="23" height="19" viewBox="0 0 23 19" fill="none" xmlns="http://www.w3.org/2000/svg">
<path fill-rule="evenodd" clip-rule="evenodd" d="M1.83333 6.23429C0.611105 8.743 0 11.1705 0 13.517V14.4395C0 16.4322 1.61543 18.0476 3.60816 18.0476C5.60088 18.0476 7.21631 16.4322 7.21631 14.4395V13.4047C7.21631 11.4326 7.52837 9.57923 8.15248 7.84435C8.47442 6.94944 8.88286 6.05951 9.37778 5.17457C10.161 3.77419 9.86084 1.95316 8.51678 1.07682C7.52788 0.432046 6.22263 0.467776 5.37687 1.2914C3.93664 2.69392 2.75547 4.34154 1.83333 6.23429ZM14.8333 6.23429C13.6111 8.743 13 11.1705 13 13.517V14.4395C13 16.4322 14.6154 18.0476 16.6082 18.0476C18.6009 18.0476 20.2163 16.4322 20.2163 14.4395V13.4047C20.2163 11.4326 20.5284 9.57923 21.1525 7.84435C21.4744 6.94944 21.8829 6.05952 22.3778 5.17457C23.161 3.77419 22.8608 1.95316 21.5168 1.07682C20.5279 0.432045 19.2226 0.467776 18.3769 1.2914C16.9366 2.69392 15.7555 4.34154 14.8333 6.23429Z" fill="#5D5DFF"/>
</svg>
