<svg xmlns="http://www.w3.org/2000/svg" 
version="1.0" 
width="74.000000pt"
height="89.000000pt" 
viewBox="0 0 74.000000 89.000000" 
preserveAspectRatio="xMidYMid meet" 
fill="#ffffff">
<metadata>
Created by potrace 1.16, written by Peter Selinger 2001-2019
</metadata>
<g xmlns="http://www.w3.org/2000/svg" transform="translate(0.000000,89.000000) scale(0.100000,-0.100000)">
<path d="M263 683 l-133 -75 0 -163 0 -163 133 -76 c73 -42 137 -76 142 -76 4 0 68 35 142 77 l133 77 0 161 0 160 -134 78 c-73 42 -138 77 -142 77 -5 -1 -69 -35 -141 -77z m242 -66 l90 -53 3 -119 2 -120 -69 -37 c-38 -21 -74 -38 -80 -38 -6 0 -11 40 -13 111 l-3 112 -82 46 c-46 26 -87 51 -93 57 -7 7 13 23 63 52 39 23 77 42 82 42 6 0 51 -24 100 -53z m-206 -158 l71 -41 0 -83 c0 -46 -3 -86 -7 -88 -5 -3 -41 14 -80 37 l-73 41 0 88 c0 48 4 87 9 87 5 0 41 -18 80 -41z"/>
</g>
</svg>